<svg width="81" height="28" viewBox="0 0 81 28" fill="none" xmlns="http://www.w3.org/2000/svg">
<path d="M0 4C0 1.79086 1.79086 0 4 0H77C79.2091 0 81 1.79086 81 4V24C81 26.2091 79.2091 28 77 28H4C1.79086 28 0 26.2091 0 24V4Z" fill="#9F1C0F"/>
<path d="M27.5859 15.2969L25.8438 10.2266L23.9922 15.2969H27.5859ZM25.0312 8.52344H26.7891L30.9531 20H29.25L28.0859 16.5625H23.5469L22.3047 20H20.7109L25.0312 8.52344ZM35.7109 19.0547C36.3672 19.0547 36.9115 18.7812 37.3438 18.2344C37.7812 17.6823 38 16.8594 38 15.7656C38 15.099 37.9036 14.526 37.7109 14.0469C37.3464 13.125 36.6797 12.6641 35.7109 12.6641C34.737 12.6641 34.0703 13.151 33.7109 14.125C33.5182 14.6458 33.4219 15.3073 33.4219 16.1094C33.4219 16.7552 33.5182 17.3047 33.7109 17.7578C34.0755 18.6224 34.7422 19.0547 35.7109 19.0547ZM32.0703 11.6719H33.4375V12.7812C33.7188 12.401 34.026 12.1068 34.3594 11.8984C34.8333 11.5859 35.3906 11.4297 36.0312 11.4297C36.9792 11.4297 37.7839 11.7943 38.4453 12.5234C39.1068 13.2474 39.4375 14.2839 39.4375 15.6328C39.4375 17.4557 38.9609 18.7578 38.0078 19.5391C37.4036 20.0339 36.7005 20.2812 35.8984 20.2812C35.2682 20.2812 34.7396 20.1432 34.3125 19.8672C34.0625 19.7109 33.7839 19.4427 33.4766 19.0625V23.3359H32.0703V11.6719ZM44.6172 19.0547C45.2734 19.0547 45.8177 18.7812 46.25 18.2344C46.6875 17.6823 46.9062 16.8594 46.9062 15.7656C46.9062 15.099 46.8099 14.526 46.6172 14.0469C46.2526 13.125 45.5859 12.6641 44.6172 12.6641C43.6432 12.6641 42.9766 13.151 42.6172 14.125C42.4245 14.6458 42.3281 15.3073 42.3281 16.1094C42.3281 16.7552 42.4245 17.3047 42.6172 17.7578C42.9818 18.6224 43.6484 19.0547 44.6172 19.0547ZM40.9766 11.6719H42.3438V12.7812C42.625 12.401 42.9323 12.1068 43.2656 11.8984C43.7396 11.5859 44.2969 11.4297 44.9375 11.4297C45.8854 11.4297 46.6901 11.7943 47.3516 12.5234C48.013 13.2474 48.3438 14.2839 48.3438 15.6328C48.3438 17.4557 47.8672 18.7578 46.9141 19.5391C46.3099 20.0339 45.6068 20.2812 44.8047 20.2812C44.1745 20.2812 43.6458 20.1432 43.2188 19.8672C42.9688 19.7109 42.6901 19.4427 42.3828 19.0625V23.3359H40.9766V11.6719ZM50.0312 8.52344H51.4375V20H50.0312V8.52344ZM58.7812 11.6328H60.3359C60.138 12.1693 59.6979 13.3932 59.0156 15.3047C58.5052 16.7422 58.0781 17.9141 57.7344 18.8203C56.9219 20.9557 56.349 22.2578 56.0156 22.7266C55.6823 23.1953 55.1094 23.4297 54.2969 23.4297C54.099 23.4297 53.9453 23.4219 53.8359 23.4062C53.7318 23.3906 53.6016 23.362 53.4453 23.3203V22.0391C53.6901 22.1068 53.8672 22.1484 53.9766 22.1641C54.0859 22.1797 54.1823 22.1875 54.2656 22.1875C54.526 22.1875 54.7161 22.1432 54.8359 22.0547C54.9609 21.9714 55.0651 21.8672 55.1484 21.7422C55.1745 21.7005 55.2682 21.487 55.4297 21.1016C55.5911 20.7161 55.7083 20.4297 55.7812 20.2422L52.6875 11.6328H54.2812L56.5234 18.4453L58.7812 11.6328Z" fill="white"/>
</svg>
