<svg width="345" height="262" viewBox="0 0 345 262" fill="none" xmlns="http://www.w3.org/2000/svg">
<g clip-path="url(#clip0)">
<rect x="0.5" y="0.5" width="344" height="69" fill="white" stroke="white"/>
<path d="M46.1797 29.2109C47.6328 29.2109 48.7604 29.5938 49.5625 30.3594C50.3646 31.125 50.8099 31.9948 50.8984 32.9688H49.3828C49.2109 32.2292 48.8672 31.6432 48.3516 31.2109C47.8411 30.7786 47.1224 30.5625 46.1953 30.5625C45.0651 30.5625 44.151 30.9609 43.4531 31.7578C42.7604 32.5495 42.4141 33.7656 42.4141 35.4062C42.4141 36.75 42.7266 37.8411 43.3516 38.6797C43.9818 39.513 44.9193 39.9297 46.1641 39.9297C47.3099 39.9297 48.1823 39.4896 48.7812 38.6094C49.099 38.1458 49.3359 37.5365 49.4922 36.7812H51.0078C50.8724 37.9896 50.4245 39.0026 49.6641 39.8203C48.7526 40.8047 47.5234 41.2969 45.9766 41.2969C44.6432 41.2969 43.5234 40.8932 42.6172 40.0859C41.4245 39.0182 40.8281 37.3698 40.8281 35.1406C40.8281 33.4479 41.276 32.0599 42.1719 30.9766C43.1406 29.7995 44.4766 29.2109 46.1797 29.2109ZM52.7578 29.5234H54.1641V41H52.7578V29.5234ZM59.7656 32.4453C60.3594 32.4453 60.9349 32.5859 61.4922 32.8672C62.0495 33.1432 62.474 33.5026 62.7656 33.9453C63.0469 34.3672 63.2344 34.8594 63.3281 35.4219C63.4115 35.8073 63.4531 36.4219 63.4531 37.2656H57.3203C57.3464 38.1146 57.5469 38.7969 57.9219 39.3125C58.2969 39.8229 58.8776 40.0781 59.6641 40.0781C60.3984 40.0781 60.9844 39.8359 61.4219 39.3516C61.6719 39.0703 61.849 38.7448 61.9531 38.375H63.3359C63.2995 38.6823 63.1771 39.026 62.9688 39.4062C62.7656 39.7812 62.5365 40.0885 62.2812 40.3281C61.8542 40.7448 61.3255 41.026 60.6953 41.1719C60.3568 41.2552 59.974 41.2969 59.5469 41.2969C58.5052 41.2969 57.6224 40.9193 56.8984 40.1641C56.1745 39.4036 55.8125 38.3411 55.8125 36.9766C55.8125 35.6328 56.1771 34.5417 56.9062 33.7031C57.6354 32.8646 58.5885 32.4453 59.7656 32.4453ZM62.0078 36.1484C61.9505 35.5391 61.8177 35.0521 61.6094 34.6875C61.224 34.0104 60.5807 33.6719 59.6797 33.6719C59.0339 33.6719 58.4922 33.9062 58.0547 34.375C57.6172 34.8385 57.3854 35.4297 57.3594 36.1484H62.0078ZM66.2656 38.7734C66.2656 39.1797 66.4141 39.5 66.7109 39.7344C67.0078 39.9688 67.3594 40.0859 67.7656 40.0859C68.2604 40.0859 68.7396 39.9714 69.2031 39.7422C69.9844 39.362 70.375 38.7396 70.375 37.875V36.7422C70.2031 36.8516 69.9818 36.9427 69.7109 37.0156C69.4401 37.0885 69.1745 37.1406 68.9141 37.1719L68.0625 37.2812C67.5521 37.349 67.1693 37.4557 66.9141 37.6016C66.4818 37.8464 66.2656 38.237 66.2656 38.7734ZM69.6719 35.9297C69.9948 35.888 70.2109 35.7526 70.3203 35.5234C70.3828 35.3984 70.4141 35.2188 70.4141 34.9844C70.4141 34.5052 70.2422 34.1589 69.8984 33.9453C69.5599 33.7266 69.0729 33.6172 68.4375 33.6172C67.7031 33.6172 67.1823 33.8151 66.875 34.2109C66.7031 34.4297 66.5911 34.7552 66.5391 35.1875H65.2266C65.2526 34.1562 65.5859 33.4401 66.2266 33.0391C66.8724 32.6328 67.6198 32.4297 68.4688 32.4297C69.4531 32.4297 70.2526 32.6172 70.8672 32.9922C71.4766 33.3672 71.7812 33.9505 71.7812 34.7422V39.5625C71.7812 39.7083 71.8099 39.8255 71.8672 39.9141C71.9297 40.0026 72.0573 40.0469 72.25 40.0469C72.3125 40.0469 72.3828 40.0443 72.4609 40.0391C72.5391 40.0286 72.6224 40.0156 72.7109 40V41.0391C72.4922 41.1016 72.3255 41.1406 72.2109 41.1562C72.0964 41.1719 71.9401 41.1797 71.7422 41.1797C71.2578 41.1797 70.9062 41.0078 70.6875 40.6641C70.5729 40.4818 70.4922 40.224 70.4453 39.8906C70.1589 40.2656 69.7474 40.5911 69.2109 40.8672C68.6745 41.1432 68.0833 41.2812 67.4375 41.2812C66.6615 41.2812 66.026 41.0469 65.5312 40.5781C65.0417 40.1042 64.7969 39.513 64.7969 38.8047C64.7969 38.0286 65.0391 37.4271 65.5234 37C66.0078 36.5729 66.6432 36.3099 67.4297 36.2109L69.6719 35.9297ZM74.1328 32.6328H75.4688V34.0781C75.5781 33.7969 75.8464 33.4557 76.2734 33.0547C76.7005 32.6484 77.1927 32.4453 77.75 32.4453C77.776 32.4453 77.8203 32.4479 77.8828 32.4531C77.9453 32.4583 78.0521 32.4688 78.2031 32.4844V33.9688C78.1198 33.9531 78.0417 33.9427 77.9688 33.9375C77.901 33.9323 77.8255 33.9297 77.7422 33.9297C77.0339 33.9297 76.4896 34.1589 76.1094 34.6172C75.7292 35.0703 75.5391 35.5938 75.5391 36.1875V41H74.1328V32.6328ZM84.9531 38.7734C84.9531 39.1797 85.1016 39.5 85.3984 39.7344C85.6953 39.9688 86.0469 40.0859 86.4531 40.0859C86.9479 40.0859 87.4271 39.9714 87.8906 39.7422C88.6719 39.362 89.0625 38.7396 89.0625 37.875V36.7422C88.8906 36.8516 88.6693 36.9427 88.3984 37.0156C88.1276 37.0885 87.862 37.1406 87.6016 37.1719L86.75 37.2812C86.2396 37.349 85.8568 37.4557 85.6016 37.6016C85.1693 37.8464 84.9531 38.237 84.9531 38.7734ZM88.3594 35.9297C88.6823 35.888 88.8984 35.7526 89.0078 35.5234C89.0703 35.3984 89.1016 35.2188 89.1016 34.9844C89.1016 34.5052 88.9297 34.1589 88.5859 33.9453C88.2474 33.7266 87.7604 33.6172 87.125 33.6172C86.3906 33.6172 85.8698 33.8151 85.5625 34.2109C85.3906 34.4297 85.2786 34.7552 85.2266 35.1875H83.9141C83.9401 34.1562 84.2734 33.4401 84.9141 33.0391C85.5599 32.6328 86.3073 32.4297 87.1562 32.4297C88.1406 32.4297 88.9401 32.6172 89.5547 32.9922C90.1641 33.3672 90.4688 33.9505 90.4688 34.7422V39.5625C90.4688 39.7083 90.4974 39.8255 90.5547 39.9141C90.6172 40.0026 90.7448 40.0469 90.9375 40.0469C91 40.0469 91.0703 40.0443 91.1484 40.0391C91.2266 40.0286 91.3099 40.0156 91.3984 40V41.0391C91.1797 41.1016 91.013 41.1406 90.8984 41.1562C90.7839 41.1719 90.6276 41.1797 90.4297 41.1797C89.9453 41.1797 89.5938 41.0078 89.375 40.6641C89.2604 40.4818 89.1797 40.224 89.1328 39.8906C88.8464 40.2656 88.4349 40.5911 87.8984 40.8672C87.362 41.1432 86.7708 41.2812 86.125 41.2812C85.349 41.2812 84.7135 41.0469 84.2188 40.5781C83.7292 40.1042 83.4844 39.513 83.4844 38.8047C83.4844 38.0286 83.7266 37.4271 84.2109 37C84.6953 36.5729 85.3307 36.3099 86.1172 36.2109L88.3594 35.9297ZM92.8203 29.5234H94.2266V41H92.8203V29.5234ZM96.3828 29.5234H97.7891V41H96.3828V29.5234Z" fill="#9F1C0F"/>
<path d="M24 22H115V20H24V22ZM118 25V45H120V25H118ZM115 48H24V50H115V48ZM21 45V25H19V45H21ZM24 48C22.3431 48 21 46.6569 21 45H19C19 47.7614 21.2386 50 24 50V48ZM118 45C118 46.6569 116.657 48 115 48V50C117.761 50 120 47.7614 120 45H118ZM115 22C116.657 22 118 23.3431 118 25H120C120 22.2386 117.761 20 115 20V22ZM24 20C21.2386 20 19 22.2386 19 25H21C21 23.3431 22.3431 22 24 22V20Z" fill="#9F1C0F"/>
<path d="M244 25C244 22.7909 245.791 21 248 21H321C323.209 21 325 22.7909 325 25V45C325 47.2091 323.209 49 321 49H248C245.791 49 244 47.2091 244 45V25Z" fill="#9F1C0F"/>
<path d="M271.586 36.2969L269.844 31.2266L267.992 36.2969H271.586ZM269.031 29.5234H270.789L274.953 41H273.25L272.086 37.5625H267.547L266.305 41H264.711L269.031 29.5234ZM279.711 40.0547C280.367 40.0547 280.911 39.7812 281.344 39.2344C281.781 38.6823 282 37.8594 282 36.7656C282 36.099 281.904 35.526 281.711 35.0469C281.346 34.125 280.68 33.6641 279.711 33.6641C278.737 33.6641 278.07 34.151 277.711 35.125C277.518 35.6458 277.422 36.3073 277.422 37.1094C277.422 37.7552 277.518 38.3047 277.711 38.7578C278.076 39.6224 278.742 40.0547 279.711 40.0547ZM276.07 32.6719H277.438V33.7812C277.719 33.401 278.026 33.1068 278.359 32.8984C278.833 32.5859 279.391 32.4297 280.031 32.4297C280.979 32.4297 281.784 32.7943 282.445 33.5234C283.107 34.2474 283.438 35.2839 283.438 36.6328C283.438 38.4557 282.961 39.7578 282.008 40.5391C281.404 41.0339 280.701 41.2812 279.898 41.2812C279.268 41.2812 278.74 41.1432 278.312 40.8672C278.062 40.7109 277.784 40.4427 277.477 40.0625V44.3359H276.07V32.6719ZM288.617 40.0547C289.273 40.0547 289.818 39.7812 290.25 39.2344C290.688 38.6823 290.906 37.8594 290.906 36.7656C290.906 36.099 290.81 35.526 290.617 35.0469C290.253 34.125 289.586 33.6641 288.617 33.6641C287.643 33.6641 286.977 34.151 286.617 35.125C286.424 35.6458 286.328 36.3073 286.328 37.1094C286.328 37.7552 286.424 38.3047 286.617 38.7578C286.982 39.6224 287.648 40.0547 288.617 40.0547ZM284.977 32.6719H286.344V33.7812C286.625 33.401 286.932 33.1068 287.266 32.8984C287.74 32.5859 288.297 32.4297 288.938 32.4297C289.885 32.4297 290.69 32.7943 291.352 33.5234C292.013 34.2474 292.344 35.2839 292.344 36.6328C292.344 38.4557 291.867 39.7578 290.914 40.5391C290.31 41.0339 289.607 41.2812 288.805 41.2812C288.174 41.2812 287.646 41.1432 287.219 40.8672C286.969 40.7109 286.69 40.4427 286.383 40.0625V44.3359H284.977V32.6719ZM294.031 29.5234H295.438V41H294.031V29.5234ZM302.781 32.6328H304.336C304.138 33.1693 303.698 34.3932 303.016 36.3047C302.505 37.7422 302.078 38.9141 301.734 39.8203C300.922 41.9557 300.349 43.2578 300.016 43.7266C299.682 44.1953 299.109 44.4297 298.297 44.4297C298.099 44.4297 297.945 44.4219 297.836 44.4062C297.732 44.3906 297.602 44.362 297.445 44.3203V43.0391C297.69 43.1068 297.867 43.1484 297.977 43.1641C298.086 43.1797 298.182 43.1875 298.266 43.1875C298.526 43.1875 298.716 43.1432 298.836 43.0547C298.961 42.9714 299.065 42.8672 299.148 42.7422C299.174 42.7005 299.268 42.487 299.43 42.1016C299.591 41.7161 299.708 41.4297 299.781 41.2422L296.688 32.6328H298.281L300.523 39.4453L302.781 32.6328Z" fill="white"/>
<rect x="0.5" y="70.5" width="344" height="47" fill="white" stroke="white"/>
<g clip-path="url(#clip1)">
<path d="M23.5547 90.4844V98H25.7734C26.9089 98 27.7005 97.4401 28.1484 96.3203C28.3932 95.7057 28.5156 94.974 28.5156 94.125C28.5156 92.9531 28.3307 92.0547 27.9609 91.4297C27.5964 90.7995 26.8672 90.4844 25.7734 90.4844H23.5547ZM26.1797 88.4844C26.8932 88.4948 27.487 88.5781 27.9609 88.7344C28.7682 89 29.4219 89.487 29.9219 90.1953C30.3229 90.7682 30.5964 91.388 30.7422 92.0547C30.888 92.7214 30.9609 93.3568 30.9609 93.9609C30.9609 95.4922 30.6536 96.7891 30.0391 97.8516C29.2057 99.2839 27.9193 100 26.1797 100H21.2188V88.4844H26.1797ZM37.2969 95.8594C37.1562 95.9479 37.013 96.0208 36.8672 96.0781C36.7266 96.1302 36.5312 96.1797 36.2812 96.2266L35.7812 96.3203C35.3125 96.4036 34.9766 96.5052 34.7734 96.625C34.4297 96.8281 34.2578 97.1432 34.2578 97.5703C34.2578 97.9505 34.362 98.2266 34.5703 98.3984C34.7839 98.5651 35.0417 98.6484 35.3438 98.6484C35.8229 98.6484 36.263 98.5078 36.6641 98.2266C37.0703 97.9453 37.2812 97.4323 37.2969 96.6875V95.8594ZM35.9453 94.8203C36.3568 94.7682 36.651 94.7031 36.8281 94.625C37.1458 94.4896 37.3047 94.2786 37.3047 93.9922C37.3047 93.6432 37.1823 93.4036 36.9375 93.2734C36.6979 93.138 36.3438 93.0703 35.875 93.0703C35.349 93.0703 34.9766 93.2005 34.7578 93.4609C34.6016 93.6536 34.4974 93.9141 34.4453 94.2422H32.2969C32.3438 93.4974 32.5521 92.8854 32.9219 92.4062C33.5104 91.6562 34.5208 91.2812 35.9531 91.2812C36.8854 91.2812 37.7135 91.4661 38.4375 91.8359C39.1615 92.2057 39.5234 92.9036 39.5234 93.9297V97.8359C39.5234 98.1068 39.5286 98.4349 39.5391 98.8203C39.5547 99.112 39.599 99.3099 39.6719 99.4141C39.7448 99.5182 39.8542 99.6042 40 99.6719V100H37.5781C37.5104 99.8281 37.4635 99.6667 37.4375 99.5156C37.4115 99.3646 37.3906 99.1927 37.375 99C37.0677 99.3333 36.7135 99.6172 36.3125 99.8516C35.8333 100.128 35.2917 100.266 34.6875 100.266C33.9167 100.266 33.2786 100.047 32.7734 99.6094C32.2734 99.1667 32.0234 98.5417 32.0234 97.7344C32.0234 96.6875 32.4271 95.9297 33.2344 95.4609C33.6771 95.2057 34.3281 95.0234 35.1875 94.9141L35.9453 94.8203ZM40.6328 93.1484V91.5625H41.8203V89.1875H44.0234V91.5625H45.4062V93.1484H44.0234V97.6484C44.0234 97.9974 44.0677 98.2161 44.1562 98.3047C44.2448 98.388 44.5156 98.4297 44.9688 98.4297C45.0365 98.4297 45.1068 98.4297 45.1797 98.4297C45.2578 98.4245 45.3333 98.4193 45.4062 98.4141V100.078L44.3516 100.117C43.2995 100.154 42.5807 99.9714 42.1953 99.5703C41.9453 99.3151 41.8203 98.9219 41.8203 98.3906V93.1484H40.6328ZM51.5312 95.8594C51.3906 95.9479 51.2474 96.0208 51.1016 96.0781C50.9609 96.1302 50.7656 96.1797 50.5156 96.2266L50.0156 96.3203C49.5469 96.4036 49.2109 96.5052 49.0078 96.625C48.6641 96.8281 48.4922 97.1432 48.4922 97.5703C48.4922 97.9505 48.5964 98.2266 48.8047 98.3984C49.0182 98.5651 49.276 98.6484 49.5781 98.6484C50.0573 98.6484 50.4974 98.5078 50.8984 98.2266C51.3047 97.9453 51.5156 97.4323 51.5312 96.6875V95.8594ZM50.1797 94.8203C50.5911 94.7682 50.8854 94.7031 51.0625 94.625C51.3802 94.4896 51.5391 94.2786 51.5391 93.9922C51.5391 93.6432 51.4167 93.4036 51.1719 93.2734C50.9323 93.138 50.5781 93.0703 50.1094 93.0703C49.5833 93.0703 49.2109 93.2005 48.9922 93.4609C48.8359 93.6536 48.7318 93.9141 48.6797 94.2422H46.5312C46.5781 93.4974 46.7865 92.8854 47.1562 92.4062C47.7448 91.6562 48.7552 91.2812 50.1875 91.2812C51.1198 91.2812 51.9479 91.4661 52.6719 91.8359C53.3958 92.2057 53.7578 92.9036 53.7578 93.9297V97.8359C53.7578 98.1068 53.763 98.4349 53.7734 98.8203C53.7891 99.112 53.8333 99.3099 53.9062 99.4141C53.9792 99.5182 54.0885 99.6042 54.2344 99.6719V100H51.8125C51.7448 99.8281 51.6979 99.6667 51.6719 99.5156C51.6458 99.3646 51.625 99.1927 51.6094 99C51.3021 99.3333 50.9479 99.6172 50.5469 99.8516C50.0677 100.128 49.526 100.266 48.9219 100.266C48.151 100.266 47.513 100.047 47.0078 99.6094C46.5078 99.1667 46.2578 98.5417 46.2578 97.7344C46.2578 96.6875 46.6615 95.9297 47.4688 95.4609C47.9115 95.2057 48.5625 95.0234 49.4219 94.9141L50.1797 94.8203ZM61.9297 97.2812C61.9766 97.6771 62.0781 97.9583 62.2344 98.125C62.5104 98.4219 63.0208 98.5703 63.7656 98.5703C64.2031 98.5703 64.5495 98.5052 64.8047 98.375C65.0651 98.2448 65.1953 98.0495 65.1953 97.7891C65.1953 97.5391 65.0911 97.349 64.8828 97.2188C64.6745 97.0885 63.901 96.8646 62.5625 96.5469C61.599 96.3073 60.9193 96.0078 60.5234 95.6484C60.1276 95.2943 59.9297 94.7839 59.9297 94.1172C59.9297 93.3307 60.237 92.6562 60.8516 92.0938C61.4714 91.526 62.3411 91.2422 63.4609 91.2422C64.5234 91.2422 65.388 91.4557 66.0547 91.8828C66.7266 92.3047 67.112 93.0365 67.2109 94.0781H64.9844C64.9531 93.7917 64.8724 93.5651 64.7422 93.3984C64.4974 93.0964 64.0807 92.9453 63.4922 92.9453C63.0078 92.9453 62.6615 93.0208 62.4531 93.1719C62.25 93.3229 62.1484 93.5 62.1484 93.7031C62.1484 93.9583 62.2578 94.1432 62.4766 94.2578C62.6953 94.3776 63.4688 94.5833 64.7969 94.875C65.6823 95.0833 66.3464 95.3984 66.7891 95.8203C67.2266 96.2474 67.4453 96.7812 67.4453 97.4219C67.4453 98.2656 67.1302 98.9557 66.5 99.4922C65.875 100.023 64.9062 100.289 63.5938 100.289C62.2552 100.289 61.2656 100.008 60.625 99.4453C59.9896 98.8776 59.6719 98.1562 59.6719 97.2812H61.9297ZM72.4609 93.0938C71.9453 93.0938 71.5443 93.2552 71.2578 93.5781C70.9766 93.901 70.7995 94.3385 70.7266 94.8906H74.1875C74.151 94.3021 73.9714 93.8568 73.6484 93.5547C73.3307 93.2474 72.9349 93.0938 72.4609 93.0938ZM72.4609 91.2578C73.1693 91.2578 73.8073 91.3906 74.375 91.6562C74.9427 91.9219 75.4115 92.3411 75.7812 92.9141C76.1146 93.4193 76.3307 94.0052 76.4297 94.6719C76.487 95.0625 76.5104 95.625 76.5 96.3594H70.6719C70.7031 97.2135 70.9714 97.8125 71.4766 98.1562C71.7839 98.3698 72.1536 98.4766 72.5859 98.4766C73.0443 98.4766 73.4167 98.3464 73.7031 98.0859C73.8594 97.9453 73.9974 97.75 74.1172 97.5H76.3906C76.3333 98.0052 76.0703 98.5182 75.6016 99.0391C74.8724 99.8672 73.8516 100.281 72.5391 100.281C71.4557 100.281 70.5 99.9323 69.6719 99.2344C68.8438 98.5365 68.4297 97.401 68.4297 95.8281C68.4297 94.3542 68.8021 93.224 69.5469 92.4375C70.2969 91.651 71.2682 91.2578 72.4609 91.2578ZM77.1328 93.1484V91.5625H78.3203V89.1875H80.5234V91.5625H81.9062V93.1484H80.5234V97.6484C80.5234 97.9974 80.5677 98.2161 80.6562 98.3047C80.7448 98.388 81.0156 98.4297 81.4688 98.4297C81.5365 98.4297 81.6068 98.4297 81.6797 98.4297C81.7578 98.4245 81.8333 98.4193 81.9062 98.4141V100.078L80.8516 100.117C79.7995 100.154 79.0807 99.9714 78.6953 99.5703C78.4453 99.3151 78.3203 98.9219 78.3203 98.3906V93.1484H77.1328Z" fill="#262626"/>
</g>
<path d="M324.812 91H323.641C323.561 91 323.486 91.0391 323.439 91.1031L319 97.2219L314.561 91.1031C314.514 91.0391 314.439 91 314.359 91H313.187C313.086 91 313.027 91.1156 313.086 91.1984L318.595 98.7937C318.795 99.0687 319.205 99.0687 319.403 98.7937L324.912 91.1984C324.973 91.1156 324.914 91 324.812 91Z" fill="#8C8C8C"/>
<line x1="-1" y1="117.75" x2="345" y2="117.75" stroke="#8C8C8C" stroke-width="0.5"/>
<line y1="117.75" x2="345" y2="117.75" stroke="#8C8C8C" stroke-width="0.5"/>
<rect y="118" width="345" height="48.0208" fill="white"/>
<g clip-path="url(#clip2)">
<path d="M27.1094 143.297L25.3672 138.227L23.5156 143.297H27.1094ZM24.5547 136.523H26.3125L30.4766 148H28.7734L27.6094 144.562H23.0703L21.8281 148H20.2344L24.5547 136.523ZM32.5938 143.914C32.5938 144.81 32.7839 145.56 33.1641 146.164C33.5443 146.768 34.1536 147.07 34.9922 147.07C35.6432 147.07 36.1771 146.792 36.5938 146.234C37.0156 145.672 37.2266 144.867 37.2266 143.82C37.2266 142.763 37.0104 141.982 36.5781 141.477C36.1458 140.966 35.612 140.711 34.9766 140.711C34.2682 140.711 33.6927 140.982 33.25 141.523C32.8125 142.065 32.5938 142.862 32.5938 143.914ZM34.7109 139.484C35.3516 139.484 35.888 139.62 36.3203 139.891C36.5703 140.047 36.8542 140.32 37.1719 140.711V136.484H38.5234V148H37.2578V146.836C36.9297 147.352 36.5417 147.724 36.0938 147.953C35.6458 148.182 35.1328 148.297 34.5547 148.297C33.6224 148.297 32.8151 147.906 32.1328 147.125C31.4505 146.339 31.1094 145.294 31.1094 143.992C31.1094 142.773 31.4193 141.719 32.0391 140.828C32.6641 139.932 33.5547 139.484 34.7109 139.484ZM41.5 143.914C41.5 144.81 41.6901 145.56 42.0703 146.164C42.4505 146.768 43.0599 147.07 43.8984 147.07C44.5495 147.07 45.0833 146.792 45.5 146.234C45.9219 145.672 46.1328 144.867 46.1328 143.82C46.1328 142.763 45.9167 141.982 45.4844 141.477C45.0521 140.966 44.5182 140.711 43.8828 140.711C43.1745 140.711 42.599 140.982 42.1562 141.523C41.7188 142.065 41.5 142.862 41.5 143.914ZM43.6172 139.484C44.2578 139.484 44.7943 139.62 45.2266 139.891C45.4766 140.047 45.7604 140.32 46.0781 140.711V136.484H47.4297V148H46.1641V146.836C45.8359 147.352 45.4479 147.724 45 147.953C44.5521 148.182 44.0391 148.297 43.4609 148.297C42.5286 148.297 41.7214 147.906 41.0391 147.125C40.3568 146.339 40.0156 145.294 40.0156 143.992C40.0156 142.773 40.3255 141.719 40.9453 140.828C41.5703 139.932 42.4609 139.484 43.6172 139.484ZM54.3203 138.359C54.3411 137.776 54.4427 137.349 54.625 137.078C54.9531 136.599 55.5859 136.359 56.5234 136.359C56.612 136.359 56.7031 136.362 56.7969 136.367C56.8906 136.372 56.9974 136.38 57.1172 136.391V137.672C56.9714 137.661 56.8646 137.656 56.7969 137.656C56.7344 137.651 56.6745 137.648 56.6172 137.648C56.1901 137.648 55.9349 137.76 55.8516 137.984C55.7682 138.203 55.7266 138.766 55.7266 139.672H57.1172V140.781H55.7109V148H54.3203V140.781H53.1562V139.672H54.3203V138.359ZM58.4688 138.117V136.523H59.875V138.117H58.4688ZM58.4688 139.672H59.875V148H58.4688V139.672ZM62.0078 136.523H63.4141V148H62.0078V136.523ZM65.8125 137.297H67.2344V139.633H68.5703V140.781H67.2344V146.242C67.2344 146.534 67.3333 146.729 67.5312 146.828C67.6406 146.885 67.8229 146.914 68.0781 146.914C68.1458 146.914 68.2188 146.914 68.2969 146.914C68.375 146.909 68.4661 146.901 68.5703 146.891V148C68.4089 148.047 68.2396 148.081 68.0625 148.102C67.8906 148.122 67.7031 148.133 67.5 148.133C66.8438 148.133 66.3984 147.966 66.1641 147.633C65.9297 147.294 65.8125 146.857 65.8125 146.32V140.781H64.6797V139.633H65.8125V137.297ZM73.4688 139.445C74.0625 139.445 74.638 139.586 75.1953 139.867C75.7526 140.143 76.1771 140.503 76.4688 140.945C76.75 141.367 76.9375 141.859 77.0312 142.422C77.1146 142.807 77.1562 143.422 77.1562 144.266H71.0234C71.0495 145.115 71.25 145.797 71.625 146.312C72 146.823 72.5807 147.078 73.3672 147.078C74.1016 147.078 74.6875 146.836 75.125 146.352C75.375 146.07 75.5521 145.745 75.6562 145.375H77.0391C77.0026 145.682 76.8802 146.026 76.6719 146.406C76.4688 146.781 76.2396 147.089 75.9844 147.328C75.5573 147.745 75.0286 148.026 74.3984 148.172C74.0599 148.255 73.6771 148.297 73.25 148.297C72.2083 148.297 71.3255 147.919 70.6016 147.164C69.8776 146.404 69.5156 145.341 69.5156 143.977C69.5156 142.633 69.8802 141.542 70.6094 140.703C71.3385 139.865 72.2917 139.445 73.4688 139.445ZM75.7109 143.148C75.6536 142.539 75.5208 142.052 75.3125 141.688C74.9271 141.01 74.2839 140.672 73.3828 140.672C72.737 140.672 72.1953 140.906 71.7578 141.375C71.3203 141.839 71.0885 142.43 71.0625 143.148H75.7109ZM78.9297 139.633H80.2656V141.078C80.375 140.797 80.6432 140.456 81.0703 140.055C81.4974 139.648 81.9896 139.445 82.5469 139.445C82.5729 139.445 82.6172 139.448 82.6797 139.453C82.7422 139.458 82.849 139.469 83 139.484V140.969C82.9167 140.953 82.8385 140.943 82.7656 140.938C82.6979 140.932 82.6224 140.93 82.5391 140.93C81.8307 140.93 81.2865 141.159 80.9062 141.617C80.526 142.07 80.3359 142.594 80.3359 143.188V148H78.9297V139.633Z" fill="#8C8C8C"/>
</g>
<line x1="-1" y1="165.771" x2="345" y2="165.771" stroke="#8C8C8C" stroke-width="0.5"/>
<path d="M319.002 135.525H319.998C320.087 135.525 320.131 135.569 320.131 135.657V147.35C320.131 147.439 320.087 147.483 319.998 147.483H319.002C318.913 147.483 318.869 147.439 318.869 147.35V135.657C318.869 135.569 318.913 135.525 319.002 135.525Z" fill="#8C8C8C"/>
<path d="M313.922 140.873H325.078C325.167 140.873 325.211 140.917 325.211 141.005V142.002C325.211 142.091 325.167 142.135 325.078 142.135H313.922C313.833 142.135 313.789 142.091 313.789 142.002V141.005C313.789 140.917 313.833 140.873 313.922 140.873Z" fill="#8C8C8C"/>
<rect x="0.5" y="166.5" width="344" height="47" fill="white" stroke="white"/>
<g clip-path="url(#clip3)">
<path d="M23.5547 186.484V194H25.7734C26.9089 194 27.7005 193.44 28.1484 192.32C28.3932 191.706 28.5156 190.974 28.5156 190.125C28.5156 188.953 28.3307 188.055 27.9609 187.43C27.5964 186.799 26.8672 186.484 25.7734 186.484H23.5547ZM26.1797 184.484C26.8932 184.495 27.487 184.578 27.9609 184.734C28.7682 185 29.4219 185.487 29.9219 186.195C30.3229 186.768 30.5964 187.388 30.7422 188.055C30.888 188.721 30.9609 189.357 30.9609 189.961C30.9609 191.492 30.6536 192.789 30.0391 193.852C29.2057 195.284 27.9193 196 26.1797 196H21.2188V184.484H26.1797ZM37.2969 191.859C37.1562 191.948 37.013 192.021 36.8672 192.078C36.7266 192.13 36.5312 192.18 36.2812 192.227L35.7812 192.32C35.3125 192.404 34.9766 192.505 34.7734 192.625C34.4297 192.828 34.2578 193.143 34.2578 193.57C34.2578 193.951 34.362 194.227 34.5703 194.398C34.7839 194.565 35.0417 194.648 35.3438 194.648C35.8229 194.648 36.263 194.508 36.6641 194.227C37.0703 193.945 37.2812 193.432 37.2969 192.688V191.859ZM35.9453 190.82C36.3568 190.768 36.651 190.703 36.8281 190.625C37.1458 190.49 37.3047 190.279 37.3047 189.992C37.3047 189.643 37.1823 189.404 36.9375 189.273C36.6979 189.138 36.3438 189.07 35.875 189.07C35.349 189.07 34.9766 189.201 34.7578 189.461C34.6016 189.654 34.4974 189.914 34.4453 190.242H32.2969C32.3438 189.497 32.5521 188.885 32.9219 188.406C33.5104 187.656 34.5208 187.281 35.9531 187.281C36.8854 187.281 37.7135 187.466 38.4375 187.836C39.1615 188.206 39.5234 188.904 39.5234 189.93V193.836C39.5234 194.107 39.5286 194.435 39.5391 194.82C39.5547 195.112 39.599 195.31 39.6719 195.414C39.7448 195.518 39.8542 195.604 40 195.672V196H37.5781C37.5104 195.828 37.4635 195.667 37.4375 195.516C37.4115 195.365 37.3906 195.193 37.375 195C37.0677 195.333 36.7135 195.617 36.3125 195.852C35.8333 196.128 35.2917 196.266 34.6875 196.266C33.9167 196.266 33.2786 196.047 32.7734 195.609C32.2734 195.167 32.0234 194.542 32.0234 193.734C32.0234 192.688 32.4271 191.93 33.2344 191.461C33.6771 191.206 34.3281 191.023 35.1875 190.914L35.9453 190.82ZM40.6328 189.148V187.562H41.8203V185.188H44.0234V187.562H45.4062V189.148H44.0234V193.648C44.0234 193.997 44.0677 194.216 44.1562 194.305C44.2448 194.388 44.5156 194.43 44.9688 194.43C45.0365 194.43 45.1068 194.43 45.1797 194.43C45.2578 194.424 45.3333 194.419 45.4062 194.414V196.078L44.3516 196.117C43.2995 196.154 42.5807 195.971 42.1953 195.57C41.9453 195.315 41.8203 194.922 41.8203 194.391V189.148H40.6328ZM50.1953 189.094C49.6797 189.094 49.2786 189.255 48.9922 189.578C48.7109 189.901 48.5339 190.339 48.4609 190.891H51.9219C51.8854 190.302 51.7057 189.857 51.3828 189.555C51.0651 189.247 50.6693 189.094 50.1953 189.094ZM50.1953 187.258C50.9036 187.258 51.5417 187.391 52.1094 187.656C52.6771 187.922 53.1458 188.341 53.5156 188.914C53.849 189.419 54.0651 190.005 54.1641 190.672C54.2214 191.062 54.2448 191.625 54.2344 192.359H48.4062C48.4375 193.214 48.7057 193.812 49.2109 194.156C49.5182 194.37 49.888 194.477 50.3203 194.477C50.7786 194.477 51.151 194.346 51.4375 194.086C51.5938 193.945 51.7318 193.75 51.8516 193.5H54.125C54.0677 194.005 53.8047 194.518 53.3359 195.039C52.6068 195.867 51.5859 196.281 50.2734 196.281C49.1901 196.281 48.2344 195.932 47.4062 195.234C46.5781 194.536 46.1641 193.401 46.1641 191.828C46.1641 190.354 46.5365 189.224 47.2812 188.438C48.0312 187.651 49.0026 187.258 50.1953 187.258ZM64.8203 187.281C64.862 187.281 64.8958 187.284 64.9219 187.289C64.9531 187.289 65.0182 187.292 65.1172 187.297V189.578C64.9766 189.562 64.8516 189.552 64.7422 189.547C64.6328 189.542 64.5443 189.539 64.4766 189.539C63.5807 189.539 62.9792 189.831 62.6719 190.414C62.5 190.742 62.4141 191.247 62.4141 191.93V196H60.1719V187.484H62.2969V188.969C62.6406 188.401 62.9401 188.013 63.1953 187.805C63.612 187.456 64.1536 187.281 64.8203 187.281ZM71.125 191.859C70.9844 191.948 70.8411 192.021 70.6953 192.078C70.5547 192.13 70.3594 192.18 70.1094 192.227L69.6094 192.32C69.1406 192.404 68.8047 192.505 68.6016 192.625C68.2578 192.828 68.0859 193.143 68.0859 193.57C68.0859 193.951 68.1901 194.227 68.3984 194.398C68.612 194.565 68.8698 194.648 69.1719 194.648C69.651 194.648 70.0911 194.508 70.4922 194.227C70.8984 193.945 71.1094 193.432 71.125 192.688V191.859ZM69.7734 190.82C70.1849 190.768 70.4792 190.703 70.6562 190.625C70.974 190.49 71.1328 190.279 71.1328 189.992C71.1328 189.643 71.0104 189.404 70.7656 189.273C70.526 189.138 70.1719 189.07 69.7031 189.07C69.1771 189.07 68.8047 189.201 68.5859 189.461C68.4297 189.654 68.3255 189.914 68.2734 190.242H66.125C66.1719 189.497 66.3802 188.885 66.75 188.406C67.3385 187.656 68.349 187.281 69.7812 187.281C70.7135 187.281 71.5417 187.466 72.2656 187.836C72.9896 188.206 73.3516 188.904 73.3516 189.93V193.836C73.3516 194.107 73.3568 194.435 73.3672 194.82C73.3828 195.112 73.4271 195.31 73.5 195.414C73.5729 195.518 73.6823 195.604 73.8281 195.672V196H71.4062C71.3385 195.828 71.2917 195.667 71.2656 195.516C71.2396 195.365 71.2188 195.193 71.2031 195C70.8958 195.333 70.5417 195.617 70.1406 195.852C69.6615 196.128 69.1198 196.266 68.5156 196.266C67.7448 196.266 67.1068 196.047 66.6016 195.609C66.1016 195.167 65.8516 194.542 65.8516 193.734C65.8516 192.688 66.2552 191.93 67.0625 191.461C67.5052 191.206 68.1562 191.023 69.0156 190.914L69.7734 190.82ZM80.0547 187.281C80.9349 187.281 81.6536 187.513 82.2109 187.977C82.7734 188.435 83.0547 189.198 83.0547 190.266V196H80.7734V190.82C80.7734 190.372 80.7135 190.029 80.5938 189.789C80.375 189.352 79.9583 189.133 79.3438 189.133C78.5885 189.133 78.0703 189.453 77.7891 190.094C77.6432 190.432 77.5703 190.865 77.5703 191.391V196H75.3516V187.5H77.5V188.742C77.7865 188.305 78.0573 187.99 78.3125 187.797C78.7708 187.453 79.3516 187.281 80.0547 187.281ZM88.7734 194.172C89.2943 194.172 89.7344 193.977 90.0938 193.586C90.4531 193.19 90.6328 192.562 90.6328 191.703C90.6328 190.896 90.4609 190.281 90.1172 189.859C89.7786 189.438 89.3229 189.227 88.75 189.227C87.9688 189.227 87.4297 189.594 87.1328 190.328C86.9766 190.719 86.8984 191.201 86.8984 191.773C86.8984 192.268 86.9818 192.708 87.1484 193.094C87.4505 193.812 87.9922 194.172 88.7734 194.172ZM88.2188 187.281C88.6458 187.281 89.0182 187.346 89.3359 187.477C89.8776 187.701 90.3151 188.112 90.6484 188.711V187.484H92.8125V195.562C92.8125 196.661 92.6276 197.49 92.2578 198.047C91.6224 199.005 90.4036 199.484 88.6016 199.484C87.513 199.484 86.625 199.271 85.9375 198.844C85.25 198.417 84.8698 197.779 84.7969 196.93H87.2188C87.2812 197.19 87.3828 197.378 87.5234 197.492C87.763 197.695 88.1667 197.797 88.7344 197.797C89.5365 197.797 90.0729 197.529 90.3438 196.992C90.5208 196.648 90.6094 196.07 90.6094 195.258V194.711C90.3958 195.076 90.1667 195.349 89.9219 195.531C89.4792 195.87 88.9036 196.039 88.1953 196.039C87.1016 196.039 86.2266 195.656 85.5703 194.891C84.9193 194.12 84.5938 193.078 84.5938 191.766C84.5938 190.5 84.9089 189.438 85.5391 188.578C86.1693 187.714 87.0625 187.281 88.2188 187.281ZM98.2578 189.094C97.7422 189.094 97.3411 189.255 97.0547 189.578C96.7734 189.901 96.5964 190.339 96.5234 190.891H99.9844C99.9479 190.302 99.7682 189.857 99.4453 189.555C99.1276 189.247 98.7318 189.094 98.2578 189.094ZM98.2578 187.258C98.9661 187.258 99.6042 187.391 100.172 187.656C100.74 187.922 101.208 188.341 101.578 188.914C101.911 189.419 102.128 190.005 102.227 190.672C102.284 191.062 102.307 191.625 102.297 192.359H96.4688C96.5 193.214 96.7682 193.812 97.2734 194.156C97.5807 194.37 97.9505 194.477 98.3828 194.477C98.8411 194.477 99.2135 194.346 99.5 194.086C99.6562 193.945 99.7943 193.75 99.9141 193.5H102.188C102.13 194.005 101.867 194.518 101.398 195.039C100.669 195.867 99.6484 196.281 98.3359 196.281C97.2526 196.281 96.2969 195.932 95.4688 195.234C94.6406 194.536 94.2266 193.401 94.2266 191.828C94.2266 190.354 94.599 189.224 95.3438 188.438C96.0938 187.651 97.0651 187.258 98.2578 187.258Z" fill="#262626"/>
</g>
<path d="M324.812 187H323.641C323.561 187 323.486 187.039 323.439 187.103L319 193.222L314.561 187.103C314.514 187.039 314.439 187 314.359 187H313.187C313.086 187 313.027 187.116 313.086 187.198L318.595 194.794C318.795 195.069 319.205 195.069 319.403 194.794L324.912 187.198C324.973 187.116 324.914 187 324.812 187Z" fill="#8C8C8C"/>
<line x1="-1" y1="213.75" x2="345" y2="213.75" stroke="#8C8C8C" stroke-width="0.5"/>
<rect x="0.5" y="214.5" width="344" height="47" fill="white" stroke="white"/>
<g clip-path="url(#clip4)">
<path d="M20.7188 238.336C20.7188 236.326 21.2578 234.776 22.3359 233.688C23.2734 232.74 24.4661 232.266 25.9141 232.266C27.8516 232.266 29.2682 232.901 30.1641 234.172C30.6589 234.885 30.9245 235.602 30.9609 236.32H28.5547C28.3984 235.768 28.1979 235.352 27.9531 235.07C27.5156 234.57 26.8672 234.32 26.0078 234.32C25.1328 234.32 24.4427 234.674 23.9375 235.383C23.4323 236.086 23.1797 237.083 23.1797 238.375C23.1797 239.667 23.4453 240.635 23.9766 241.281C24.513 241.922 25.1927 242.242 26.0156 242.242C26.8594 242.242 27.5026 241.966 27.9453 241.414C28.1901 241.117 28.3932 240.672 28.5547 240.078H30.9375C30.7292 241.333 30.1953 242.354 29.3359 243.141C28.4818 243.927 27.3854 244.32 26.0469 244.32C24.3906 244.32 23.0885 243.789 22.1406 242.727C21.1927 241.659 20.7188 240.195 20.7188 238.336ZM36.4219 242.43C37.0729 242.43 37.5729 242.198 37.9219 241.734C38.2708 241.271 38.4453 240.612 38.4453 239.758C38.4453 238.904 38.2708 238.247 37.9219 237.789C37.5729 237.326 37.0729 237.094 36.4219 237.094C35.7708 237.094 35.2682 237.326 34.9141 237.789C34.5651 238.247 34.3906 238.904 34.3906 239.758C34.3906 240.612 34.5651 241.271 34.9141 241.734C35.2682 242.198 35.7708 242.43 36.4219 242.43ZM40.7812 239.758C40.7812 241.008 40.4219 242.078 39.7031 242.969C38.9844 243.854 37.8932 244.297 36.4297 244.297C34.9661 244.297 33.875 243.854 33.1562 242.969C32.4375 242.078 32.0781 241.008 32.0781 239.758C32.0781 238.529 32.4375 237.464 33.1562 236.562C33.875 235.661 34.9661 235.211 36.4297 235.211C37.8932 235.211 38.9844 235.661 39.7031 236.562C40.4219 237.464 40.7812 238.529 40.7812 239.758ZM51.8984 235.297C52.2734 235.297 52.6432 235.37 53.0078 235.516C53.3724 235.661 53.7031 235.917 54 236.281C54.2396 236.578 54.401 236.943 54.4844 237.375C54.5365 237.661 54.5625 238.081 54.5625 238.633L54.5469 244H52.2656V238.578C52.2656 238.255 52.2135 237.99 52.1094 237.781C51.9115 237.385 51.5469 237.188 51.0156 237.188C50.401 237.188 49.9766 237.443 49.7422 237.953C49.6224 238.224 49.5625 238.549 49.5625 238.93V244H47.3203V238.93C47.3203 238.424 47.2682 238.057 47.1641 237.828C46.9766 237.417 46.6094 237.211 46.0625 237.211C45.4271 237.211 45 237.417 44.7812 237.828C44.6615 238.062 44.6016 238.411 44.6016 238.875V244H42.3438V235.5H44.5078V236.742C44.7839 236.299 45.0443 235.984 45.2891 235.797C45.7214 235.464 46.2812 235.297 46.9688 235.297C47.6198 235.297 48.1458 235.44 48.5469 235.727C48.8698 235.992 49.1146 236.333 49.2812 236.75C49.5729 236.25 49.9349 235.883 50.3672 235.648C50.8255 235.414 51.3359 235.297 51.8984 235.297ZM62.4844 239.742C62.4844 239.086 62.3333 238.505 62.0312 238C61.7344 237.495 61.25 237.242 60.5781 237.242C59.7708 237.242 59.2161 237.625 58.9141 238.391C58.7578 238.797 58.6797 239.312 58.6797 239.938C58.6797 240.927 58.9427 241.622 59.4688 242.023C59.7812 242.258 60.151 242.375 60.5781 242.375C61.1979 242.375 61.6693 242.135 61.9922 241.656C62.3203 241.177 62.4844 240.539 62.4844 239.742ZM61.2188 235.297C62.2135 235.297 63.0547 235.664 63.7422 236.398C64.4349 237.133 64.7812 238.211 64.7812 239.633C64.7812 241.133 64.4427 242.276 63.7656 243.062C63.0938 243.849 62.2266 244.242 61.1641 244.242C60.487 244.242 59.9245 244.073 59.4766 243.734C59.2318 243.547 58.9922 243.273 58.7578 242.914V247.352H56.5547V235.484H58.6875V236.742C58.9271 236.372 59.1823 236.081 59.4531 235.867C59.9479 235.487 60.5365 235.297 61.2188 235.297ZM71.0938 239.859C70.9531 239.948 70.8099 240.021 70.6641 240.078C70.5234 240.13 70.3281 240.18 70.0781 240.227L69.5781 240.32C69.1094 240.404 68.7734 240.505 68.5703 240.625C68.2266 240.828 68.0547 241.143 68.0547 241.57C68.0547 241.951 68.1589 242.227 68.3672 242.398C68.5807 242.565 68.8385 242.648 69.1406 242.648C69.6198 242.648 70.0599 242.508 70.4609 242.227C70.8672 241.945 71.0781 241.432 71.0938 240.688V239.859ZM69.7422 238.82C70.1536 238.768 70.4479 238.703 70.625 238.625C70.9427 238.49 71.1016 238.279 71.1016 237.992C71.1016 237.643 70.9792 237.404 70.7344 237.273C70.4948 237.138 70.1406 237.07 69.6719 237.07C69.1458 237.07 68.7734 237.201 68.5547 237.461C68.3984 237.654 68.2943 237.914 68.2422 238.242H66.0938C66.1406 237.497 66.349 236.885 66.7188 236.406C67.3073 235.656 68.3177 235.281 69.75 235.281C70.6823 235.281 71.5104 235.466 72.2344 235.836C72.9583 236.206 73.3203 236.904 73.3203 237.93V241.836C73.3203 242.107 73.3255 242.435 73.3359 242.82C73.3516 243.112 73.3958 243.31 73.4688 243.414C73.5417 243.518 73.651 243.604 73.7969 243.672V244H71.375C71.3073 243.828 71.2604 243.667 71.2344 243.516C71.2083 243.365 71.1875 243.193 71.1719 243C70.8646 243.333 70.5104 243.617 70.1094 243.852C69.6302 244.128 69.0885 244.266 68.4844 244.266C67.7135 244.266 67.0755 244.047 66.5703 243.609C66.0703 243.167 65.8203 242.542 65.8203 241.734C65.8203 240.688 66.224 239.93 67.0312 239.461C67.474 239.206 68.125 239.023 68.9844 238.914L69.7422 238.82ZM79.9297 235.281C79.9714 235.281 80.0052 235.284 80.0312 235.289C80.0625 235.289 80.1276 235.292 80.2266 235.297V237.578C80.0859 237.562 79.9609 237.552 79.8516 237.547C79.7422 237.542 79.6536 237.539 79.5859 237.539C78.6901 237.539 78.0885 237.831 77.7812 238.414C77.6094 238.742 77.5234 239.247 77.5234 239.93V244H75.2812V235.484H77.4062V236.969C77.75 236.401 78.0495 236.013 78.3047 235.805C78.7214 235.456 79.263 235.281 79.9297 235.281ZM83.8281 234.469H81.5703V232.414H83.8281V234.469ZM81.5703 235.484H83.8281V244H81.5703V235.484ZM87.7266 241.281C87.7734 241.677 87.875 241.958 88.0312 242.125C88.3073 242.422 88.8177 242.57 89.5625 242.57C90 242.57 90.3464 242.505 90.6016 242.375C90.862 242.245 90.9922 242.049 90.9922 241.789C90.9922 241.539 90.888 241.349 90.6797 241.219C90.4714 241.089 89.6979 240.865 88.3594 240.547C87.3958 240.307 86.7161 240.008 86.3203 239.648C85.9245 239.294 85.7266 238.784 85.7266 238.117C85.7266 237.331 86.0339 236.656 86.6484 236.094C87.2682 235.526 88.138 235.242 89.2578 235.242C90.3203 235.242 91.1849 235.456 91.8516 235.883C92.5234 236.305 92.9089 237.036 93.0078 238.078H90.7812C90.75 237.792 90.6693 237.565 90.5391 237.398C90.2943 237.096 89.8776 236.945 89.2891 236.945C88.8047 236.945 88.4583 237.021 88.25 237.172C88.0469 237.323 87.9453 237.5 87.9453 237.703C87.9453 237.958 88.0547 238.143 88.2734 238.258C88.4922 238.378 89.2656 238.583 90.5938 238.875C91.4792 239.083 92.1432 239.398 92.5859 239.82C93.0234 240.247 93.2422 240.781 93.2422 241.422C93.2422 242.266 92.9271 242.956 92.2969 243.492C91.6719 244.023 90.7031 244.289 89.3906 244.289C88.0521 244.289 87.0625 244.008 86.4219 243.445C85.7865 242.878 85.4688 242.156 85.4688 241.281H87.7266ZM98.7188 242.43C99.3698 242.43 99.8698 242.198 100.219 241.734C100.568 241.271 100.742 240.612 100.742 239.758C100.742 238.904 100.568 238.247 100.219 237.789C99.8698 237.326 99.3698 237.094 98.7188 237.094C98.0677 237.094 97.5651 237.326 97.2109 237.789C96.862 238.247 96.6875 238.904 96.6875 239.758C96.6875 240.612 96.862 241.271 97.2109 241.734C97.5651 242.198 98.0677 242.43 98.7188 242.43ZM103.078 239.758C103.078 241.008 102.719 242.078 102 242.969C101.281 243.854 100.19 244.297 98.7266 244.297C97.263 244.297 96.1719 243.854 95.4531 242.969C94.7344 242.078 94.375 241.008 94.375 239.758C94.375 238.529 94.7344 237.464 95.4531 236.562C96.1719 235.661 97.263 235.211 98.7266 235.211C100.19 235.211 101.281 235.661 102 236.562C102.719 237.464 103.078 238.529 103.078 239.758ZM109.398 235.281C110.279 235.281 110.997 235.513 111.555 235.977C112.117 236.435 112.398 237.198 112.398 238.266V244H110.117V238.82C110.117 238.372 110.057 238.029 109.938 237.789C109.719 237.352 109.302 237.133 108.688 237.133C107.932 237.133 107.414 237.453 107.133 238.094C106.987 238.432 106.914 238.865 106.914 239.391V244H104.695V235.5H106.844V236.742C107.13 236.305 107.401 235.99 107.656 235.797C108.115 235.453 108.695 235.281 109.398 235.281Z" fill="#262626"/>
</g>
<path d="M324.812 235H323.641C323.561 235 323.486 235.039 323.439 235.103L319 241.222L314.561 235.103C314.514 235.039 314.439 235 314.359 235H313.187C313.086 235 313.027 235.116 313.086 235.198L318.595 242.794C318.795 243.069 319.205 243.069 319.403 242.794L324.912 235.198C324.973 235.116 324.914 235 324.812 235Z" fill="#8C8C8C"/>
<line x1="-1" y1="261.75" x2="345" y2="261.75" stroke="#8C8C8C" stroke-width="0.5"/>
</g>
<defs>
<clipPath id="clip0">
<rect width="345" height="262" fill="white"/>
</clipPath>
<clipPath id="clip1">
<rect width="33" height="24" fill="white" transform="translate(20 82)"/>
</clipPath>
<clipPath id="clip2">
<rect width="33" height="24" fill="white" transform="translate(20 130)"/>
</clipPath>
<clipPath id="clip3">
<rect width="33" height="24" fill="white" transform="translate(20 178)"/>
</clipPath>
<clipPath id="clip4">
<rect width="33" height="24" fill="white" transform="translate(20 226)"/>
</clipPath>
</defs>
</svg>
