<svg width="24" height="24" viewBox="0 0 24 24" fill="none" xmlns="http://www.w3.org/2000/svg">
<path d="M13.4528 15.5951C13.4176 15.5602 13.37 15.5406 13.3204 15.5406C13.2708 15.5406 13.2232 15.5602 13.188 15.5951L10.4646 18.3185C9.20361 19.5795 7.07549 19.7131 5.6833 18.3185C4.28877 16.924 4.42236 14.7982 5.6833 13.5373L8.40674 10.8139C8.47939 10.7412 8.47939 10.6217 8.40674 10.549L7.47393 9.61621C7.43869 9.58131 7.3911 9.56174 7.3415 9.56174C7.29191 9.56174 7.24432 9.58131 7.20908 9.61621L4.48564 12.3396C2.50283 14.3225 2.50283 17.531 4.48564 19.5115C6.46846 21.492 9.67705 21.4943 11.6575 19.5115L14.381 16.7881C14.4536 16.7154 14.4536 16.5959 14.381 16.5232L13.4528 15.5951ZM19.5138 4.48574C17.531 2.50292 14.3224 2.50292 12.3419 4.48574L9.61611 7.20917C9.58122 7.24441 9.56164 7.292 9.56164 7.3416C9.56164 7.39119 9.58122 7.43878 9.61611 7.47402L10.5466 8.40449C10.6192 8.47714 10.7388 8.47714 10.8114 8.40449L13.5349 5.68105C14.7958 4.42011 16.9239 4.28652 18.3161 5.68105C19.7106 7.07558 19.5771 9.20136 18.3161 10.4623L15.5927 13.1857C15.5578 13.221 15.5382 13.2686 15.5382 13.3182C15.5382 13.3678 15.5578 13.4153 15.5927 13.4506L16.5255 14.3834C16.5981 14.456 16.7177 14.456 16.7903 14.3834L19.5138 11.66C21.4942 9.67714 21.4942 6.46855 19.5138 4.48574ZM14.2989 8.72558C14.2637 8.69069 14.2161 8.67111 14.1665 8.67111C14.1169 8.67111 14.0693 8.69069 14.0341 8.72558L8.72549 14.0318C8.69059 14.0671 8.67102 14.1147 8.67102 14.1643C8.67102 14.2138 8.69059 14.2614 8.72549 14.2967L9.65361 15.2248C9.72627 15.2975 9.8458 15.2975 9.91846 15.2248L15.2247 9.91855C15.2974 9.84589 15.2974 9.72636 15.2247 9.65371L14.2989 8.72558Z" fill="#9F1C0F"/>
</svg>
